<svg width="24" height="24" viewBox="0 0 24 24" fill="none" xmlns="http://www.w3.org/2000/svg">
<g filter="url(#filter0_d_1_773)">
<path d="M18.4 3.2H17.6V9.6C17.6 10.04 17.24 10.4 16.8 10.4H7.2V11.2C7.2 12.08 7.92 12.8 8.8 12.8H16.8L20 16V4.8C20 3.92 19.28 3.2 18.4 3.2ZM16 7.2V1.6C16 0.72 15.28 0 14.4 0H5.6C4.72 0 4 0.72 4 1.6V12L7.2 8.8H14.4C15.28 8.8 16 8.08 16 7.2Z" fill="white"/>
</g>
<defs>
<filter id="filter0_d_1_773" x="0" y="0" width="24" height="24" filterUnits="userSpaceOnUse" color-interpolation-filters="sRGB">
<feFlood flood-opacity="0" result="BackgroundImageFix"/>
<feColorMatrix in="SourceAlpha" type="matrix" values="0 0 0 0 0 0 0 0 0 0 0 0 0 0 0 0 0 0 127 0" result="hardAlpha"/>
<feOffset dy="4"/>
<feGaussianBlur stdDeviation="2"/>
<feComposite in2="hardAlpha" operator="out"/>
<feColorMatrix type="matrix" values="0 0 0 0 0 0 0 0 0 0 0 0 0 0 0 0 0 0 0.25 0"/>
<feBlend mode="normal" in2="BackgroundImageFix" result="effect1_dropShadow_1_773"/>
<feBlend mode="normal" in="SourceGraphic" in2="effect1_dropShadow_1_773" result="shape"/>
</filter>
</defs>
</svg>
